<svg xmlns="http://www.w3.org/2000/svg" viewBox="0 0 32 32" width="32" height="32">
  <defs>
    <linearGradient id="g" x1="0" y1="0" x2="1" y2="1">
      <stop offset="0" stop-color="#123b52"/>
      <stop offset="1" stop-color="#08243a"/>
    </linearGradient>
  </defs>
  <rect width="32" height="32" rx="7" fill="url(#g)"/>
  <path d="M4 11c3.2 0 3.2-2.6 6.4-2.6S13.6 11 16.8 11 20 8.4 23.2 8.4 26.4 11 28 11" fill="none" stroke="#26d4e2" stroke-width="2.4" stroke-linecap="round"/>
  <path d="M4 17c3.2 0 3.2-2.6 6.4-2.6S13.6 17 16.8 17 20 14.4 23.2 14.4 26.4 17 28 17" fill="none" stroke="#6fc7d6" stroke-width="2.4" stroke-linecap="round" opacity="0.85"/>
  <path d="M4 23c3.2 0 3.2-2.6 6.4-2.6S13.6 23 16.8 23 20 20.4 23.2 20.4 26.4 23 28 23" fill="none" stroke="#bfe6ee" stroke-width="2.4" stroke-linecap="round" opacity="0.6"/>
</svg>
